# xmcd
#
# Track frame offsets: 
#        150
#        13218
#        34376
#        46229
#        73590
#        98253
#        114190
#        134637
#        159255
#        179352
#        194999
#        213529
#        224239
#        244193
#        256292
#
# Disc length: 3606 seconds
#
# Revision: 2
# Processed by: cddbd v1.5.1PL0 Copyright (c) Steve Scherf et al.
# Submitted via: ExactAudioCopy v0.95a5
#
DISCID=e40e140f
DTITLE=Various Artist - Red White and Blues
DYEAR=2002
DGENRE=Blues
TTITLE0=Francine Reed - Why I Don't Know (feat. Lyle Lovett)
TTITLE1=Blues Boy Willie - Juke Joint Blues
TTITLE2=Travis Haddix - Through With Love
TTITLE3=Jimmy Dawkins - Lonesome Blues
TTITLE4=Luther "Houserocker" Johnson - Cryin' and Thinkin'
TTITLE5=Sandra Hall - I Miss You So
TTITLE6=Trudy Lynn - Trudy Lynn Sings the Blues
TTITLE7=Jerry McCain - I've Got the Blues All Over Me
TTITLE8=Artie "Blues Boy" White - Hattie Mae
TTITLE9=Gary B.B. Coleman - If You Can Beat Me Rockin'
TTITLE10=Chick Willis - One Slick Woman
TTITLE11=Theodis Ealey - Stop Doggin' Me Around 
TTITLE12=Legendary Blues Band - Cook Me 
TTITLE13=Slim Fatz - Southern Christmas
TTITLE14=Francine Reed - You Bug Me (feat. Delbert McClinton)
EXTD=Ichiban/Rykodisc 1007\n© 2002
EXTT0=
EXTT1=
EXTT2=
EXTT3=
EXTT4=
EXTT5=
EXTT6=
EXTT7=
EXTT8=
EXTT9=
EXTT10=
EXTT11=
EXTT12=
EXTT13=
EXTT14=
PLAYORDER=
